<?xml version="1.0" encoding="UTF-8" standalone="no"?>
<!-- Uploaded to: SVG Repo, www.svgrepo.com, Generator: SVG Repo Mixer Tools -->

<svg
   height="800px"
   width="800px"
   version="1.1"
   id="_x32_"
   viewBox="0 0 512 512"
   xml:space="preserve"
   sodipodi:docname="forum.svg"
   inkscape:version="1.1.2 (0a00cf5339, 2022-02-04)"
   xmlns:inkscape="http://www.inkscape.org/namespaces/inkscape"
   xmlns:sodipodi="http://sodipodi.sourceforge.net/DTD/sodipodi-0.dtd"
   xmlns="http://www.w3.org/2000/svg"
   xmlns:svg="http://www.w3.org/2000/svg"><defs
   id="defs17" /><sodipodi:namedview
   id="namedview15"
   pagecolor="#6e6e6e"
   bordercolor="#666666"
   borderopacity="1.0"
   inkscape:pageshadow="2"
   inkscape:pageopacity="0"
   inkscape:pagecheckerboard="0"
   showgrid="false"
   inkscape:zoom="0.520625"
   inkscape:cx="594.47779"
   inkscape:cy="622.32893"
   inkscape:window-width="1920"
   inkscape:window-height="1013"
   inkscape:window-x="1280"
   inkscape:window-y="0"
   inkscape:window-maximized="1"
   inkscape:current-layer="g12" />
<style
   type="text/css"
   id="style2">
	.st0{fill:#000000;}
</style>
<g
   id="g12"
   style="fill:#d3d3d3;fill-opacity:1">
	<path
   class="st0"
   d="M410.431,63.966C370.965,24.479,316.251-0.015,256,0c-60.237-0.015-114.958,24.479-154.416,63.966   c-39.487,39.458-63.98,94.18-63.966,154.416c-0.014,57.076,21.986,109.21,57.881,148.053   c31.947,34.609,75.062,58.846,123.588,67.118v58.59c0,7.724,4.469,14.738,11.468,18c7,3.262,15.257,2.164,21.159-2.802   l144.725-121.715l-0.036,0.022c27.36-22.878,47.239-48.146,59.914-76.195c12.711-28.041,18.087-58.437,18.065-91.071   C474.397,158.146,449.91,103.424,410.431,63.966z M420.151,293.078c-10.006,22.029-25.562,42.266-49.237,62.13l-0.029,0.029   l-112.091,94.267v-33.373c0-10.304-7.906-18.913-18.167-19.784c-45.741-3.898-86.515-24.991-115.953-56.85   C95.258,307.61,77.339,265.19,77.325,218.382c0.014-49.404,19.974-93.945,52.338-126.346C162.054,59.672,206.603,39.714,256,39.706   c49.404,0.008,93.945,19.966,126.345,52.33c32.371,32.4,52.316,76.942,52.33,126.346   C434.661,246.781,430.111,271.026,420.151,293.078z"
   id="path4"
   style="fill:#d3d3d3;fill-opacity:1" />
	<path
   class="st0"
   d="M151.771,191.906c-14.62,0-26.476,11.856-26.476,26.476c0,14.62,11.856,26.476,26.476,26.476   c14.613,0,26.469-11.856,26.469-26.476C178.24,203.762,166.385,191.906,151.771,191.906z"
   id="path6"
   style="fill:#d3d3d3;fill-opacity:1" />
	<path
   class="st0"
   d="M256,191.906c-14.613,0-26.469,11.856-26.469,26.476c0,14.62,11.856,26.476,26.469,26.476   c14.62,0,26.476-11.856,26.476-26.476C282.476,203.762,270.62,191.906,256,191.906z"
   id="path8"
   style="fill:#ff4f38;fill-opacity:1.0" />
	<path
   class="st0"
   d="M360.236,191.906c-14.62,0-26.469,11.856-26.469,26.476c0,14.62,11.848,26.476,26.469,26.476   c14.62,0,26.476-11.856,26.476-26.476C386.712,203.762,374.856,191.906,360.236,191.906z"
   id="path10"
   style="fill:#ff4f38;fill-opacity:1" />
</g>
<path
   style="fill:#ff4f38;fill-opacity:1;stroke:none;stroke-width:0.63099"
   d="m 144.24569,244.16821 c -12.40208,-4.09357 -20.02414,-15.23907 -19.06793,-27.88242 1.15309,-15.24645 15.7105,-26.84931 30.59229,-24.38332 11.51792,1.90858 20.41432,10.81079 22.40238,22.41699 1.95299,11.40145 -4.13534,22.88769 -14.94727,28.19954 -3.91185,1.92187 -4.99733,2.16312 -10.41134,2.31393 -3.75968,0.10473 -6.99814,-0.14651 -8.56813,-0.66472 z"
   id="path997" /></svg>
