<?xml version="1.0" encoding="UTF-8" standalone="no"?>
<!-- Uploaded to: SVG Repo, www.svgrepo.com, Generator: SVG Repo Mixer Tools -->

<svg
   fill="#000000"
   height="800px"
   width="800px"
   version="1.1"
   id="Capa_1"
   viewBox="0 0 457 457"
   xml:space="preserve"
   sodipodi:docname="lecture.svg"
   inkscape:version="1.1.2 (0a00cf5339, 2022-02-04)"
   xmlns:inkscape="http://www.inkscape.org/namespaces/inkscape"
   xmlns:sodipodi="http://sodipodi.sourceforge.net/DTD/sodipodi-0.dtd"
   xmlns="http://www.w3.org/2000/svg"
   xmlns:svg="http://www.w3.org/2000/svg"><defs
   id="defs53" /><sodipodi:namedview
   id="namedview51"
   pagecolor="#757575"
   bordercolor="#666666"
   borderopacity="1.0"
   inkscape:pageshadow="2"
   inkscape:pageopacity="0"
   inkscape:pagecheckerboard="0"
   showgrid="false"
   inkscape:zoom="0.50625"
   inkscape:cx="103.7037"
   inkscape:cy="282.46914"
   inkscape:window-width="1920"
   inkscape:window-height="1013"
   inkscape:window-x="1280"
   inkscape:window-y="0"
   inkscape:window-maximized="1"
   inkscape:current-layer="Capa_1" />
<path
   d="M370.439,207.419h-61.262v-26.393c0-32.077-18.822-59.836-45.998-72.828c15.119-10.837,24.998-28.541,24.998-48.521  C288.177,26.771,261.407,0,228.5,0s-59.678,26.771-59.678,59.677c0,19.98,9.88,37.685,25,48.522  c-27.175,12.992-45.995,40.75-45.995,72.826v26.393H86.561c-5.247,0-9.5,4.253-9.5,9.5v42.352c0,5.247,4.253,9.5,9.5,9.5h10  l21.835,179.875c0.579,4.769,4.627,8.355,9.431,8.355h201.352c4.804,0,8.852-3.586,9.431-8.355l21.835-179.875h9.995  c5.247,0,9.5-4.253,9.5-9.5v-42.352C379.939,211.672,375.686,207.419,370.439,207.419z M187.823,59.677  C187.823,37.248,206.071,19,228.5,19s40.677,18.248,40.677,40.677c0,22.413-18.221,40.649-40.628,40.676  c-0.016,0-0.031-0.001-0.047-0.001c-0.017,0-0.033,0.001-0.049,0.001C206.045,100.328,187.823,82.091,187.823,59.677z   M166.829,181.026c0-33.991,27.641-61.646,61.625-61.673c0.016,0,0.031,0.001,0.047,0.001c0.017,0,0.033-0.001,0.049-0.001  c33.986,0.026,61.628,27.681,61.628,61.673v26.393h-14.528v-23.44c0-2.52-1.001-4.936-2.782-6.718l-5.214-5.214  c0.372-1.455,0.591-2.97,0.591-4.539c0-10.126-8.237-18.364-18.363-18.364s-18.364,8.238-18.364,18.364s8.238,18.364,18.364,18.364  c1.454,0,2.862-0.188,4.219-0.508l2.55,2.55v19.505h-56.292v-19.505l2.591-2.591c1.406,0.346,2.867,0.55,4.379,0.55  c10.126,0,18.364-8.238,18.364-18.364s-8.238-18.364-18.364-18.364s-18.363,8.238-18.363,18.364c0,1.511,0.204,2.973,0.55,4.379  l-5.374,5.374c-1.781,1.781-2.782,4.198-2.782,6.717v23.44h-14.528V181.026z M96.061,226.419h264.878v23.352H96.061V226.419z   M320.761,438H136.244L115.7,268.771h225.605L320.761,438z"
   id="path48"
   style="fill:#e1e1e1;fill-opacity:1" />
<path
   style="fill:#fa3c28;fill-opacity:1;stroke:none;stroke-width:0.574206"
   d="M 96.061,238.09499 V 226.419 H 228.5 360.939 V 238.09499 249.771 H 228.5 96.061 Z"
   id="path172" /></svg>
