<?xml version="1.0" encoding="UTF-8" standalone="no"?>
<!-- Uploaded to: SVG Repo, www.svgrepo.com, Generator: SVG Repo Mixer Tools -->

<svg
   version="1.1"
   id="Icons"
   viewBox="0 0 32 32"
   xml:space="preserve"
   sodipodi:docname="network.svg"
   inkscape:version="1.1.2 (0a00cf5339, 2022-02-04)"
   xmlns:inkscape="http://www.inkscape.org/namespaces/inkscape"
   xmlns:sodipodi="http://sodipodi.sourceforge.net/DTD/sodipodi-0.dtd"
   xmlns="http://www.w3.org/2000/svg"
   xmlns:svg="http://www.w3.org/2000/svg"><defs
   id="defs25" /><sodipodi:namedview
   id="namedview23"
   pagecolor="#979797"
   bordercolor="#666666"
   borderopacity="1.0"
   inkscape:pageshadow="2"
   inkscape:pageopacity="0"
   inkscape:pagecheckerboard="0"
   showgrid="false"
   inkscape:zoom="16"
   inkscape:cx="13.59375"
   inkscape:cy="13.9375"
   inkscape:window-width="1920"
   inkscape:window-height="1013"
   inkscape:window-x="1280"
   inkscape:window-y="0"
   inkscape:window-maximized="1"
   inkscape:current-layer="Icons" />
<style
   type="text/css"
   id="style2">
	.st0{fill:none;stroke:#000000;stroke-width:2;stroke-linejoin:round;stroke-miterlimit:10;}
	.st1{fill:none;stroke:#000000;stroke-width:2;stroke-linecap:round;stroke-linejoin:round;stroke-miterlimit:10;}
	.st2{fill:none;stroke:#000000;stroke-width:2;stroke-miterlimit:10;}
</style>









<path
   style="fill:#d5d5d5;fill-opacity:1;stroke:none;stroke-width:0.0384154"
   d="M 6.9086798,29.928994 C 5.7680388,29.711084 4.8545766,29.013074 4.362188,27.983126 3.7408795,26.683512 3.987127,25.169859 4.9919527,24.112039 5.6370339,23.432936 6.3978138,23.08257 7.3181273,23.040754 c 0.5072069,-0.02305 0.8594155,0.02221 1.2848257,0.165091 0.1641293,0.05513 0.3111091,0.08565 0.3266216,0.06784 0.1161585,-0.133387 1.9516214,-2.385783 1.9739044,-2.422284 0.01743,-0.02856 -0.06956,-0.162231 -0.22499,-0.345739 -1.1699748,-1.381282 -1.7876843,-3.270516 -1.6372274,-5.007377 0.1067401,-1.232197 0.4924062,-2.365432 1.1357024,-3.33713 0.117916,-0.178111 0.214393,-0.342614 0.214393,-0.365562 0,-0.02295 -0.7237402,-0.764705 -1.6083105,-1.64835 L 7.1747361,8.5406179 7.0070723,8.6261536 C 5.9299726,9.1756489 4.5046058,9.0574002 3.4957983,8.3348583 2.8125595,7.8454999 2.3219792,7.1188191 2.1091842,6.2809124 2.0047143,5.8695491 2.0129777,5.0737541 2.1261375,4.6482593 2.3847237,3.675943 3.0684676,2.8351964 3.9567827,2.3972573 4.5141514,2.1224747 4.8420322,2.045324 5.4741897,2.0402099 c 0.5522566,-0.00447 0.8517428,0.048227 1.3223979,0.232675 0.7350615,0.2880683 1.4535164,0.9548616 1.8227822,1.691712 0.4599222,0.9177504 0.4626674,2.1488698 0.00678,3.0424754 l -0.047223,0.1628185 1.5948368,1.5870687 c 0.886264,0.8819466 1.598877,1.6343975 1.621825,1.6343975 0.02295,0 0.156138,-0.112051 0.334249,-0.229964 0.673592,-0.483893 1.629916,-0.8384454 2.44278,-1.0030357 1.558998,-0.3156687 3.115929,-0.1033503 4.55823,0.6192561 0.663658,0.3324986 1.136758,0.6666496 1.679879,1.1865006 l 0.417789,0.399888 0.497938,-0.339074 c 0.429632,-0.29256 0.494428,-0.350051 0.472351,-0.419096 -0.156647,-0.489895 -0.209853,-1.1703324 -0.130148,-1.6644216 0.221032,-1.3701685 1.285082,-2.4991139 2.676105,-2.8393177 0.401754,-0.098257 1.132382,-0.089842 1.56976,0.01808 0.707452,0.1745625 1.428829,0.6318817 1.890614,1.1985609 0.25211,0.3093767 0.559837,0.9184173 0.669336,1.324724 0.108368,0.4021074 0.119645,1.2137846 0.02228,1.6033534 -0.318996,1.2763 -1.163591,2.182175 -2.409357,2.584169 -0.264524,0.08536 -0.421958,0.109016 -0.829057,0.124578 -0.779724,0.02981 -1.374714,-0.122653 -2.002553,-0.513135 l -0.276987,-0.172272 -0.472112,0.31432 c -0.671662,0.447174 -0.621391,0.367297 -0.464493,0.738036 0.349116,0.824935 0.525678,1.724237 0.525678,2.677493 0,0.980645 -0.182246,1.883516 -0.550866,2.729063 -0.08713,0.199856 -0.162035,0.378409 -0.166461,0.396785 -0.0065,0.02705 0.795772,0.624013 1.977288,1.471245 l 0.169723,0.121704 0.247801,-0.157687 c 0.328918,-0.209306 0.788781,-0.392395 1.185851,-0.472134 0.484194,-0.09723 1.217602,-0.0623 1.654987,0.07884 1.209911,0.390425 2.062022,1.276165 2.387367,2.481584 0.121528,0.45027 0.12143,1.25564 -1.92e-4,1.705939 -0.337237,1.248433 -1.279638,2.182964 -2.543388,2.522151 -0.444903,0.119411 -1.218987,0.119377 -1.661915,-7.7e-5 -0.652986,-0.176098 -1.222307,-0.512875 -1.684069,-0.996196 -0.466696,-0.488485 -0.761071,-1.057254 -0.89847,-1.735955 -0.08647,-0.427105 -0.05903,-1.159612 0.0589,-1.572548 0.04467,-0.156432 0.06746,-0.296438 0.05064,-0.311124 -0.01684,-0.01468 -0.471417,-0.343243 -1.010192,-0.730132 -0.538776,-0.386889 -1.001349,-0.720192 -1.027941,-0.740673 -0.03494,-0.02691 -0.137375,0.04823 -0.369381,0.270965 -0.924172,0.887242 -2.129514,1.516336 -3.402236,1.7757 -1.657555,0.337789 -3.259865,0.07657 -4.886281,-0.796599 -0.01341,-0.0072 -0.492882,0.557796 -1.065502,1.255542 l -1.041128,1.268628 0.119572,0.202482 c 0.737247,1.248453 0.577895,2.887833 -0.389332,4.005377 -0.6425879,0.742452 -1.5042019,1.15363 -2.4971949,1.191706 -0.283578,0.01087 -0.5402511,-0.0019 -0.7167704,-0.0356 z m 0.968003,-1.964605 c 0.6577306,-0.171272 1.0885874,-0.702129 1.1244516,-1.385432 0.037486,-0.714197 -0.3736451,-1.312861 -1.042852,-1.51854 -1.286146,-0.395292 -2.3992475,0.899334 -1.8105711,2.105839 0.3222592,0.660478 1.0202449,0.982684 1.7289715,0.798133 z M 26.802431,24.98502 c 0.838609,-0.175454 1.375859,-1.022317 1.167189,-1.839829 -0.124117,-0.486253 -0.394928,-0.812892 -0.851056,-1.026501 -0.203708,-0.0954 -0.270479,-0.106685 -0.631169,-0.106685 -0.358069,0 -0.428243,0.01166 -0.624951,0.103838 -0.283663,0.132926 -0.597355,0.447113 -0.740132,0.7413 -0.101491,0.209119 -0.111959,0.267895 -0.112886,0.633853 -9.11e-4,0.359029 0.01036,0.42765 0.102541,0.624352 0.307352,0.655846 1.00269,1.013568 1.690464,0.869672 z m -9.88063,-4.054193 c 0.632,-0.107978 1.323115,-0.393339 1.920631,-0.793028 0.370555,-0.247872 1.047495,-0.924812 1.295367,-1.295367 0.59001,-0.882036 0.868019,-1.792411 0.868019,-2.842432 0,-1.387747 -0.483779,-2.553683 -1.467957,-3.537861 -0.984902,-0.984901 -2.147058,-1.4667 -3.537861,-1.4667 -1.390803,0 -2.552959,0.481799 -3.537861,1.4667 -0.984178,0.984178 -1.467957,2.150114 -1.467957,3.537861 0,1.054703 0.275378,1.956462 0.868019,2.842432 0.247872,0.370555 0.924812,1.047495 1.295367,1.295367 1.134013,0.758561 2.402189,1.025734 3.764233,0.793028 z m 9.11748,-10.018814 c 0.310249,-0.127565 0.503502,-0.269868 0.664686,-0.489443 0.223151,-0.303993 0.2975,-0.5366318 0.298489,-0.9339746 7.64e-4,-0.3080582 -0.01224,-0.3737035 -0.119363,-0.6023379 -0.357341,-0.7626941 -1.167773,-1.089761 -1.963024,-0.7922198 -0.292271,0.1093528 -0.656137,0.4596752 -0.799188,0.769441 -0.100643,0.2179369 -0.111203,0.2795079 -0.1105,0.6443244 6.8e-4,0.353169 0.01317,0.4296525 0.100356,0.6146459 0.185829,0.394295 0.533662,0.704625 0.927862,0.827822 0.275431,0.08608 0.741634,0.06825 1.000682,-0.03826 z M 5.9791466,6.9337969 C 6.6373455,6.7261872 7.0445188,6.1165499 7.0030798,5.4007191 6.9273028,4.0917156 5.303926,3.499575 4.405468,4.4532178 3.6232845,5.2834445 3.9757345,6.6096987 5.0708283,6.9569402 5.3062308,7.031584 5.7010164,7.0215249 5.9791466,6.9337969 Z"
   id="path955"
   sodipodi:nodetypes="csssscscsssscssssscssscsscssscssssssscssscsssscscsssscssssscsssssscsssccsssssssssssssssssssssssssssscssssssssssss" /><path
   style="fill:#ff4f38;fill-opacity:1;stroke:none;stroke-width:0.0455638"
   d="M 5.1990567,7.0036925 C 4.2481357,6.8155597 3.7041666,5.7549778 4.1078672,4.8761897 4.2600321,4.5449521 4.5809857,4.2212351 4.9001143,4.0771212 5.2284181,3.9288638 5.7619926,3.9371064 6.1001373,4.095659 6.767938,4.4087839 7.1122049,5.0408671 6.9993775,5.7466884 6.8906861,6.4266359 6.4199146,6.8904761 5.7238669,7.0034193 5.5644373,7.0292889 5.4237431,7.0483634 5.4112131,7.0458069 5.3986831,7.0432506 5.3032127,7.024299 5.1990567,7.0036925 Z"
   id="path4193" /><path
   style="fill:#ff4f38;fill-opacity:1;stroke:none;stroke-width:0.0111633"
   d="m 26.286153,25.01266 c -0.523005,-0.08249 -0.951875,-0.409412 -1.18621,-0.904237 -0.08549,-0.180519 -0.08823,-0.197255 -0.09329,-0.571183 -0.0053,-0.385462 0.0028,-0.450852 0.07616,-0.618055 0.07825,-0.178433 0.18344,-0.325483 0.35539,-0.496836 0.274693,-0.273741 0.492356,-0.38777 0.789972,-0.413851 0.175317,-0.01536 0.559503,-0.0055 0.664135,0.01719 0.144547,0.03123 0.380232,0.149365 0.544874,0.273113 0.288547,0.216873 0.481029,0.536873 0.560751,0.932243 0.03177,0.157518 0.03126,0.393725 -0.0012,0.550295 -0.12721,0.614128 -0.584734,1.078039 -1.198379,1.215115 -0.09449,0.02111 -0.416571,0.0313 -0.51224,0.01621 z"
   id="path4386" /><path
   style="fill:#ff4f38;fill-opacity:1;stroke:none;stroke-width:0.0110485"
   d="m 25.234873,10.986369 c -0.445003,-0.05559 -0.884962,-0.394103 -1.111024,-0.854855 -0.08519,-0.1736294 -0.09923,-0.24418 -0.106669,-0.536131 -0.01,-0.3904955 0.0098,-0.5194016 0.112752,-0.7344512 0.129276,-0.2701269 0.425916,-0.5761219 0.690022,-0.7117842 0.328934,-0.1689613 0.774175,-0.2034085 1.135864,-0.087879 0.220107,0.070306 0.398765,0.177179 0.569543,0.3407 0.140458,0.134489 0.232957,0.2586165 0.32126,0.4311095 0.126628,0.2473576 0.150564,0.3464268 0.150404,0.622512 -2.29e-4,0.3962931 -0.05903,0.6054959 -0.252099,0.8968949 -0.08964,0.135292 -0.251287,0.300347 -0.372053,0.379894 -0.119894,0.07897 -0.314092,0.171522 -0.430981,0.205395 -0.187061,0.05421 -0.493477,0.07527 -0.707019,0.0486 z"
   id="path4542" /><path
   style="fill:#030000;fill-opacity:1;stroke:none;stroke-width:0.0113172"
   d="m 25.164775,11.007202 c -0.258488,-0.04895 -0.53364,-0.202884 -0.745448,-0.417019 -0.138487,-0.140009 -0.223723,-0.257321 -0.310129,-0.426838 -0.108442,-0.2127469 -0.114563,-0.2483886 -0.114563,-0.6670783 0,-0.3266527 0.0014,-0.350035 0.02608,-0.4357144 0.06256,-0.2171889 0.19969,-0.4386364 0.392656,-0.6341298 0.261205,-0.2646267 0.502994,-0.3919214 0.848508,-0.4467145 0.116509,-0.018477 0.389914,-0.015404 0.509562,0.00573 0.44939,0.079363 0.836078,0.3614747 1.073368,0.7830836 0.146442,0.2601919 0.17835,0.3855668 0.177774,0.698526 -7.48e-4,0.4069764 -0.05581,0.6036774 -0.250511,0.8948394 -0.09323,0.139431 -0.265383,0.317645 -0.380064,0.39346 -0.163128,0.107841 -0.372539,0.198511 -0.543576,0.235356 -0.147192,0.03171 -0.551808,0.04148 -0.683659,0.0165 z"
   id="path4581" /><path
   style="fill:#030000;fill-opacity:1;stroke:none;stroke-width:0.0110485"
   d="M 7.3141358,28.001719 C 6.6755963,27.92605 6.1661469,27.443384 6.0199406,26.775564 c -0.015863,-0.07246 -0.020368,-0.139045 -0.020143,-0.29773 2.615e-4,-0.183802 0.00324,-0.216136 0.029548,-0.320894 0.071973,-0.286582 0.185581,-0.493136 0.3852592,-0.700449 0.1757775,-0.182498 0.3732169,-0.308136 0.6073162,-0.386458 0.1754579,-0.0587 0.3111234,-0.07666 0.5238317,-0.06936 0.228803,0.0079 0.3803829,0.04187 0.5846006,0.131179 0.5585835,0.24427 0.8983819,0.809298 0.8647308,1.437903 -0.015681,0.292923 -0.099613,0.555222 -0.251649,0.786436 -0.073614,0.111951 -0.2656365,0.305603 -0.3762943,0.379488 -0.2490286,0.166273 -0.5350639,0.25953 -0.8320347,0.27127 -0.07292,0.0029 -0.1723572,5.28e-4 -0.2209708,-0.0052 z"
   id="path4791" /></svg>
